# xmcd CD database file
#
# Track frame offsets:
#	150
#	13967
#	40805
#	63397
#	87410
#	105425
#	130000
#	156220
#	179205
#	194875
#	208130
#	231942
#	254237
#	271110
#	296260
#
# Disc length: 4075 seconds
#
# Revision: 0
# Processed by: cddbd v1.4PL0 Copyright (c) Steve Scherf et al.
# Submitted via: CDex 1.50Beta6
#
DISCID=e70fe90f
DTITLE=Jerry Florence - Healin' Feelin'
DYEAR=1997
DGENRE=New Age
TTITLE0=Brand New Day
TTITLE1=Two by Two
TTITLE2=Name of the Game
TTITLE3=You're an Angel
TTITLE4=Unity Song
TTITLE5=Imagine
TTITLE6=Circle Chant
TTITLE7=I Love Myself the Way I Am
TTITLE8=My Own Space
TTITLE9=Thanks to You
TTITLE10=Mother, Father, Child
TTITLE11=Pease Song Medley
TTITLE12=Healin' Feelin'
TTITLE13=Make the Circle Bigger
TTITLE14=Carry Me Like a Fire
EXTD=YEAR: 1997
EXTT0=
EXTT1=
EXTT2=
EXTT3=
EXTT4=
EXTT5=
EXTT6=
EXTT7=
EXTT8=
EXTT9=
EXTT10=
EXTT11=
EXTT12=
EXTT13=
EXTT14=
PLAYORDER=
